<mxfile host="65bd71144e">
    <diagram id="prtHgNgQTEPvFCAcTncT" name="Page-1">
        <mxGraphModel dx="1723" dy="1784" grid="1" gridSize="10" guides="1" tooltips="1" connect="1" arrows="1" fold="1" page="1" pageScale="1" pageWidth="827" pageHeight="1169" math="0" shadow="0">
            <root>
                <mxCell id="0"/>
                <mxCell id="1" parent="0"/>
                <mxCell id="GkJaOWYSj2WOqf68plXg-16" style="edgeStyle=orthogonalEdgeStyle;rounded=0;orthogonalLoop=1;jettySize=auto;html=1;exitX=0;exitY=0.25;exitDx=0;exitDy=0;endArrow=none;endFill=0;" parent="1" source="GkJaOWYSj2WOqf68plXg-1" target="GkJaOWYSj2WOqf68plXg-2" edge="1">
                    <mxGeometry relative="1" as="geometry"/>
                </mxCell>
                <mxCell id="GkJaOWYSj2WOqf68plXg-17" style="edgeStyle=orthogonalEdgeStyle;rounded=0;orthogonalLoop=1;jettySize=auto;html=1;exitX=0;exitY=0.5;exitDx=0;exitDy=0;endArrow=none;endFill=0;startArrow=none;" parent="1" source="GkJaOWYSj2WOqf68plXg-9" target="GkJaOWYSj2WOqf68plXg-6" edge="1">
                    <mxGeometry relative="1" as="geometry"/>
                </mxCell>
                <mxCell id="GkJaOWYSj2WOqf68plXg-18" style="edgeStyle=orthogonalEdgeStyle;rounded=0;orthogonalLoop=1;jettySize=auto;html=1;exitX=0.5;exitY=0;exitDx=0;exitDy=0;endArrow=none;endFill=0;startArrow=none;" parent="1" source="GkJaOWYSj2WOqf68plXg-15" target="GkJaOWYSj2WOqf68plXg-3" edge="1">
                    <mxGeometry relative="1" as="geometry"/>
                </mxCell>
                <mxCell id="GkJaOWYSj2WOqf68plXg-19" style="edgeStyle=orthogonalEdgeStyle;rounded=0;orthogonalLoop=1;jettySize=auto;html=1;exitX=1;exitY=0.25;exitDx=0;exitDy=0;entryX=0;entryY=1;entryDx=0;entryDy=0;endArrow=none;endFill=0;" parent="1" source="GkJaOWYSj2WOqf68plXg-1" target="GkJaOWYSj2WOqf68plXg-4" edge="1">
                    <mxGeometry relative="1" as="geometry"/>
                </mxCell>
                <mxCell id="GkJaOWYSj2WOqf68plXg-20" style="edgeStyle=orthogonalEdgeStyle;rounded=0;orthogonalLoop=1;jettySize=auto;html=1;exitX=1;exitY=0.5;exitDx=0;exitDy=0;entryX=0;entryY=0;entryDx=0;entryDy=0;endArrow=none;endFill=0;" parent="1" source="GkJaOWYSj2WOqf68plXg-1" target="GkJaOWYSj2WOqf68plXg-15" edge="1">
                    <mxGeometry relative="1" as="geometry"/>
                </mxCell>
                <mxCell id="GkJaOWYSj2WOqf68plXg-21" style="edgeStyle=orthogonalEdgeStyle;rounded=0;orthogonalLoop=1;jettySize=auto;html=1;exitX=0.75;exitY=1;exitDx=0;exitDy=0;entryX=0.58;entryY=-0.027;entryDx=0;entryDy=0;entryPerimeter=0;endArrow=none;endFill=0;" parent="1" source="GkJaOWYSj2WOqf68plXg-1" target="GkJaOWYSj2WOqf68plXg-7" edge="1">
                    <mxGeometry relative="1" as="geometry"/>
                </mxCell>
                <mxCell id="GkJaOWYSj2WOqf68plXg-22" style="edgeStyle=orthogonalEdgeStyle;rounded=0;orthogonalLoop=1;jettySize=auto;html=1;exitX=0;exitY=0.75;exitDx=0;exitDy=0;entryX=0.753;entryY=0.08;entryDx=0;entryDy=0;entryPerimeter=0;endArrow=none;endFill=0;" parent="1" source="GkJaOWYSj2WOqf68plXg-1" target="GkJaOWYSj2WOqf68plXg-8" edge="1">
                    <mxGeometry relative="1" as="geometry"/>
                </mxCell>
                <mxCell id="GkJaOWYSj2WOqf68plXg-25" style="edgeStyle=orthogonalEdgeStyle;rounded=0;orthogonalLoop=1;jettySize=auto;html=1;exitX=1;exitY=0.75;exitDx=0;exitDy=0;entryX=0;entryY=0.5;entryDx=0;entryDy=0;endArrow=none;endFill=0;" parent="1" source="GkJaOWYSj2WOqf68plXg-1" target="GkJaOWYSj2WOqf68plXg-12" edge="1">
                    <mxGeometry relative="1" as="geometry"/>
                </mxCell>
                <mxCell id="GkJaOWYSj2WOqf68plXg-26" style="edgeStyle=orthogonalEdgeStyle;rounded=0;orthogonalLoop=1;jettySize=auto;html=1;exitX=0.5;exitY=1;exitDx=0;exitDy=0;entryX=0.041;entryY=0.234;entryDx=0;entryDy=0;entryPerimeter=0;endArrow=none;endFill=0;" parent="1" source="GkJaOWYSj2WOqf68plXg-1" target="GkJaOWYSj2WOqf68plXg-13" edge="1">
                    <mxGeometry relative="1" as="geometry"/>
                </mxCell>
                <mxCell id="GkJaOWYSj2WOqf68plXg-27" style="edgeStyle=orthogonalEdgeStyle;rounded=0;orthogonalLoop=1;jettySize=auto;html=1;exitX=0;exitY=0.75;exitDx=0;exitDy=0;endArrow=none;endFill=0;" parent="1" source="GkJaOWYSj2WOqf68plXg-1" target="GkJaOWYSj2WOqf68plXg-9" edge="1">
                    <mxGeometry relative="1" as="geometry"/>
                </mxCell>
                <mxCell id="GkJaOWYSj2WOqf68plXg-28" style="edgeStyle=orthogonalEdgeStyle;rounded=0;orthogonalLoop=1;jettySize=auto;html=1;exitX=0.25;exitY=1;exitDx=0;exitDy=0;entryX=0.5;entryY=0;entryDx=0;entryDy=0;endArrow=none;endFill=0;" parent="1" source="GkJaOWYSj2WOqf68plXg-1" target="GkJaOWYSj2WOqf68plXg-10" edge="1">
                    <mxGeometry relative="1" as="geometry"/>
                </mxCell>
                <mxCell id="GkJaOWYSj2WOqf68plXg-29" style="edgeStyle=orthogonalEdgeStyle;rounded=0;orthogonalLoop=1;jettySize=auto;html=1;exitX=1;exitY=0.25;exitDx=0;exitDy=0;entryX=0;entryY=0.5;entryDx=0;entryDy=0;endArrow=none;endFill=0;" parent="1" source="GkJaOWYSj2WOqf68plXg-1" target="GkJaOWYSj2WOqf68plXg-11" edge="1">
                    <mxGeometry relative="1" as="geometry"/>
                </mxCell>
                <mxCell id="GkJaOWYSj2WOqf68plXg-46" style="edgeStyle=orthogonalEdgeStyle;rounded=0;orthogonalLoop=1;jettySize=auto;html=1;exitX=1;exitY=0.5;exitDx=0;exitDy=0;endArrow=none;endFill=0;" parent="1" source="GkJaOWYSj2WOqf68plXg-1" target="GkJaOWYSj2WOqf68plXg-47" edge="1">
                    <mxGeometry relative="1" as="geometry">
                        <mxPoint x="720" y="309.5882352941177" as="targetPoint"/>
                    </mxGeometry>
                </mxCell>
                <mxCell id="GkJaOWYSj2WOqf68plXg-1" value="Courses" style="rounded=0;whiteSpace=wrap;html=1;" parent="1" vertex="1">
                    <mxGeometry x="420" y="280" width="120" height="60" as="geometry"/>
                </mxCell>
                <mxCell id="GkJaOWYSj2WOqf68plXg-2" value="course_title&amp;nbsp;" style="ellipse;whiteSpace=wrap;html=1;" parent="1" vertex="1">
                    <mxGeometry x="380" y="140" width="90" height="60" as="geometry"/>
                </mxCell>
                <mxCell id="GkJaOWYSj2WOqf68plXg-3" value="description&amp;nbsp;" style="ellipse;whiteSpace=wrap;html=1;" parent="1" vertex="1">
                    <mxGeometry x="345" y="75" width="90" height="60" as="geometry"/>
                </mxCell>
                <mxCell id="GkJaOWYSj2WOqf68plXg-4" value="duration" style="ellipse;whiteSpace=wrap;html=1;" parent="1" vertex="1">
                    <mxGeometry x="490" y="120" width="90" height="60" as="geometry"/>
                </mxCell>
                <mxCell id="GkJaOWYSj2WOqf68plXg-6" value="price" style="ellipse;whiteSpace=wrap;html=1;" parent="1" vertex="1">
                    <mxGeometry x="285" y="135.5" width="90" height="60" as="geometry"/>
                </mxCell>
                <mxCell id="GkJaOWYSj2WOqf68plXg-7" value="status&amp;nbsp;" style="ellipse;whiteSpace=wrap;html=1;" parent="1" vertex="1">
                    <mxGeometry x="635" y="327.75" width="90" height="60" as="geometry"/>
                </mxCell>
                <mxCell id="GkJaOWYSj2WOqf68plXg-8" value="level&amp;nbsp;" style="ellipse;whiteSpace=wrap;html=1;" parent="1" vertex="1">
                    <mxGeometry x="195" y="185.5" width="90" height="60" as="geometry"/>
                </mxCell>
                <mxCell id="GkJaOWYSj2WOqf68plXg-10" value="date_updated&amp;nbsp;" style="ellipse;whiteSpace=wrap;html=1;" parent="1" vertex="1">
                    <mxGeometry x="345" y="380" width="90" height="60" as="geometry"/>
                </mxCell>
                <mxCell id="GkJaOWYSj2WOqf68plXg-11" value="exam_id&amp;nbsp;" style="ellipse;whiteSpace=wrap;html=1;" parent="1" vertex="1">
                    <mxGeometry x="560" y="170" width="90" height="60" as="geometry"/>
                </mxCell>
                <mxCell id="GkJaOWYSj2WOqf68plXg-12" value="rating&amp;nbsp;" style="ellipse;whiteSpace=wrap;html=1;" parent="1" vertex="1">
                    <mxGeometry x="620" y="225.20999999999998" width="90" height="60" as="geometry"/>
                </mxCell>
                <mxCell id="GkJaOWYSj2WOqf68plXg-13" value="language&amp;nbsp;" style="ellipse;whiteSpace=wrap;html=1;" parent="1" vertex="1">
                    <mxGeometry x="530" y="385.21" width="90" height="60" as="geometry"/>
                </mxCell>
                <mxCell id="GkJaOWYSj2WOqf68plXg-39" style="edgeStyle=orthogonalEdgeStyle;rounded=0;orthogonalLoop=1;jettySize=auto;html=1;exitX=0.75;exitY=1;exitDx=0;exitDy=0;endArrow=none;endFill=0;" parent="1" source="GkJaOWYSj2WOqf68plXg-30" target="GkJaOWYSj2WOqf68plXg-37" edge="1">
                    <mxGeometry relative="1" as="geometry"/>
                </mxCell>
                <mxCell id="GkJaOWYSj2WOqf68plXg-40" style="edgeStyle=orthogonalEdgeStyle;rounded=0;orthogonalLoop=1;jettySize=auto;html=1;exitX=1;exitY=0.25;exitDx=0;exitDy=0;entryX=0;entryY=1;entryDx=0;entryDy=0;endArrow=none;endFill=0;" parent="1" source="GkJaOWYSj2WOqf68plXg-30" target="GkJaOWYSj2WOqf68plXg-35" edge="1">
                    <mxGeometry relative="1" as="geometry"/>
                </mxCell>
                <mxCell id="GkJaOWYSj2WOqf68plXg-41" style="edgeStyle=orthogonalEdgeStyle;rounded=0;orthogonalLoop=1;jettySize=auto;html=1;exitX=0.75;exitY=0;exitDx=0;exitDy=0;entryX=0.5;entryY=1;entryDx=0;entryDy=0;endArrow=none;endFill=0;" parent="1" source="GkJaOWYSj2WOqf68plXg-30" target="GkJaOWYSj2WOqf68plXg-32" edge="1">
                    <mxGeometry relative="1" as="geometry"/>
                </mxCell>
                <mxCell id="GkJaOWYSj2WOqf68plXg-42" style="edgeStyle=orthogonalEdgeStyle;rounded=0;orthogonalLoop=1;jettySize=auto;html=1;exitX=0.25;exitY=0;exitDx=0;exitDy=0;entryX=0.705;entryY=1.05;entryDx=0;entryDy=0;entryPerimeter=0;endArrow=none;endFill=0;" parent="1" source="GkJaOWYSj2WOqf68plXg-30" target="GkJaOWYSj2WOqf68plXg-31" edge="1">
                    <mxGeometry relative="1" as="geometry"/>
                </mxCell>
                <mxCell id="GkJaOWYSj2WOqf68plXg-43" style="edgeStyle=orthogonalEdgeStyle;rounded=0;orthogonalLoop=1;jettySize=auto;html=1;exitX=0;exitY=0.5;exitDx=0;exitDy=0;entryX=1;entryY=0.5;entryDx=0;entryDy=0;endArrow=none;endFill=0;" parent="1" source="GkJaOWYSj2WOqf68plXg-30" target="GkJaOWYSj2WOqf68plXg-36" edge="1">
                    <mxGeometry relative="1" as="geometry"/>
                </mxCell>
                <mxCell id="GkJaOWYSj2WOqf68plXg-44" style="edgeStyle=orthogonalEdgeStyle;rounded=0;orthogonalLoop=1;jettySize=auto;html=1;exitX=0;exitY=1;exitDx=0;exitDy=0;entryX=0.986;entryY=0.305;entryDx=0;entryDy=0;entryPerimeter=0;endArrow=none;endFill=0;" parent="1" source="GkJaOWYSj2WOqf68plXg-30" target="GkJaOWYSj2WOqf68plXg-33" edge="1">
                    <mxGeometry relative="1" as="geometry"/>
                </mxCell>
                <mxCell id="GkJaOWYSj2WOqf68plXg-45" style="edgeStyle=orthogonalEdgeStyle;rounded=0;orthogonalLoop=1;jettySize=auto;html=1;exitX=0.25;exitY=1;exitDx=0;exitDy=0;entryX=0.5;entryY=0;entryDx=0;entryDy=0;endArrow=none;endFill=0;" parent="1" source="GkJaOWYSj2WOqf68plXg-30" target="GkJaOWYSj2WOqf68plXg-34" edge="1">
                    <mxGeometry relative="1" as="geometry"/>
                </mxCell>
                <mxCell id="GkJaOWYSj2WOqf68plXg-105" style="edgeStyle=orthogonalEdgeStyle;rounded=0;orthogonalLoop=1;jettySize=auto;html=1;exitX=1;exitY=0.5;exitDx=0;exitDy=0;entryX=0;entryY=0.5;entryDx=0;entryDy=0;endArrow=none;endFill=0;" parent="1" source="GkJaOWYSj2WOqf68plXg-30" target="GkJaOWYSj2WOqf68plXg-104" edge="1">
                    <mxGeometry relative="1" as="geometry"/>
                </mxCell>
                <mxCell id="GkJaOWYSj2WOqf68plXg-30" value="Enrollments" style="rounded=0;whiteSpace=wrap;html=1;" parent="1" vertex="1">
                    <mxGeometry x="950" y="255.5" width="120" height="60" as="geometry"/>
                </mxCell>
                <mxCell id="GkJaOWYSj2WOqf68plXg-31" value="certificate_id" style="ellipse;whiteSpace=wrap;html=1;" parent="1" vertex="1">
                    <mxGeometry x="860" y="125.5" width="90" height="60" as="geometry"/>
                </mxCell>
                <mxCell id="GkJaOWYSj2WOqf68plXg-32" value="completion_date&amp;nbsp;" style="ellipse;whiteSpace=wrap;html=1;" parent="1" vertex="1">
                    <mxGeometry x="990" y="105.5" width="120" height="60" as="geometry"/>
                </mxCell>
                <mxCell id="GkJaOWYSj2WOqf68plXg-33" value="status" style="ellipse;whiteSpace=wrap;html=1;" parent="1" vertex="1">
                    <mxGeometry x="830" y="355.5" width="90" height="60" as="geometry"/>
                </mxCell>
                <mxCell id="GkJaOWYSj2WOqf68plXg-34" value="enrollment_date" style="ellipse;whiteSpace=wrap;html=1;" parent="1" vertex="1">
                    <mxGeometry x="1110" y="220" width="90" height="60" as="geometry"/>
                </mxCell>
                <mxCell id="GkJaOWYSj2WOqf68plXg-35" value="course_id" style="ellipse;whiteSpace=wrap;html=1;" parent="1" vertex="1">
                    <mxGeometry x="1150" y="135.5" width="90" height="60" as="geometry"/>
                </mxCell>
                <mxCell id="GkJaOWYSj2WOqf68plXg-36" value="student_id" style="ellipse;whiteSpace=wrap;html=1;" parent="1" vertex="1">
                    <mxGeometry x="790" y="185.5" width="90" height="60" as="geometry"/>
                </mxCell>
                <mxCell id="GkJaOWYSj2WOqf68plXg-37" value="enrollment_id&amp;nbsp;" style="ellipse;whiteSpace=wrap;html=1;" parent="1" vertex="1">
                    <mxGeometry x="1140" y="295.5" width="90" height="60" as="geometry"/>
                </mxCell>
                <mxCell id="GkJaOWYSj2WOqf68plXg-48" style="edgeStyle=orthogonalEdgeStyle;rounded=0;orthogonalLoop=1;jettySize=auto;html=1;exitX=1;exitY=0.5;exitDx=0;exitDy=0;entryX=0;entryY=0.75;entryDx=0;entryDy=0;endArrow=ERmany;endFill=0;" parent="1" source="GkJaOWYSj2WOqf68plXg-47" target="GkJaOWYSj2WOqf68plXg-30" edge="1">
                    <mxGeometry relative="1" as="geometry"/>
                </mxCell>
                <mxCell id="GkJaOWYSj2WOqf68plXg-47" value="1:N" style="rhombus;whiteSpace=wrap;html=1;" parent="1" vertex="1">
                    <mxGeometry x="740" y="285.21" width="80" height="49.59" as="geometry"/>
                </mxCell>
                <mxCell id="GkJaOWYSj2WOqf68plXg-51" style="edgeStyle=orthogonalEdgeStyle;rounded=0;orthogonalLoop=1;jettySize=auto;html=1;exitX=0.75;exitY=1;exitDx=0;exitDy=0;endArrow=none;endFill=0;" parent="1" source="GkJaOWYSj2WOqf68plXg-58" target="GkJaOWYSj2WOqf68plXg-65" edge="1">
                    <mxGeometry relative="1" as="geometry"/>
                </mxCell>
                <mxCell id="GkJaOWYSj2WOqf68plXg-52" style="edgeStyle=orthogonalEdgeStyle;rounded=0;orthogonalLoop=1;jettySize=auto;html=1;exitX=1;exitY=0.25;exitDx=0;exitDy=0;entryX=0;entryY=1;entryDx=0;entryDy=0;endArrow=none;endFill=0;" parent="1" source="GkJaOWYSj2WOqf68plXg-58" target="GkJaOWYSj2WOqf68plXg-63" edge="1">
                    <mxGeometry relative="1" as="geometry"/>
                </mxCell>
                <mxCell id="GkJaOWYSj2WOqf68plXg-53" style="edgeStyle=orthogonalEdgeStyle;rounded=0;orthogonalLoop=1;jettySize=auto;html=1;exitX=0.75;exitY=0;exitDx=0;exitDy=0;entryX=0.5;entryY=1;entryDx=0;entryDy=0;endArrow=none;endFill=0;" parent="1" source="GkJaOWYSj2WOqf68plXg-58" target="GkJaOWYSj2WOqf68plXg-60" edge="1">
                    <mxGeometry relative="1" as="geometry"/>
                </mxCell>
                <mxCell id="GkJaOWYSj2WOqf68plXg-54" style="edgeStyle=orthogonalEdgeStyle;rounded=0;orthogonalLoop=1;jettySize=auto;html=1;exitX=0.25;exitY=0;exitDx=0;exitDy=0;entryX=0.705;entryY=1.05;entryDx=0;entryDy=0;entryPerimeter=0;endArrow=none;endFill=0;" parent="1" source="GkJaOWYSj2WOqf68plXg-58" target="GkJaOWYSj2WOqf68plXg-59" edge="1">
                    <mxGeometry relative="1" as="geometry"/>
                </mxCell>
                <mxCell id="GkJaOWYSj2WOqf68plXg-55" style="edgeStyle=orthogonalEdgeStyle;rounded=0;orthogonalLoop=1;jettySize=auto;html=1;exitX=0;exitY=0.5;exitDx=0;exitDy=0;entryX=1;entryY=0.5;entryDx=0;entryDy=0;endArrow=none;endFill=0;" parent="1" source="GkJaOWYSj2WOqf68plXg-58" target="GkJaOWYSj2WOqf68plXg-64" edge="1">
                    <mxGeometry relative="1" as="geometry">
                        <mxPoint x="1145" y="567.66" as="targetPoint"/>
                    </mxGeometry>
                </mxCell>
                <mxCell id="GkJaOWYSj2WOqf68plXg-56" style="edgeStyle=orthogonalEdgeStyle;rounded=0;orthogonalLoop=1;jettySize=auto;html=1;exitX=0;exitY=1;exitDx=0;exitDy=0;entryX=0.986;entryY=0.305;entryDx=0;entryDy=0;entryPerimeter=0;endArrow=none;endFill=0;" parent="1" source="GkJaOWYSj2WOqf68plXg-58" target="GkJaOWYSj2WOqf68plXg-61" edge="1">
                    <mxGeometry relative="1" as="geometry"/>
                </mxCell>
                <mxCell id="GkJaOWYSj2WOqf68plXg-57" style="edgeStyle=orthogonalEdgeStyle;rounded=0;orthogonalLoop=1;jettySize=auto;html=1;exitX=0.25;exitY=1;exitDx=0;exitDy=0;entryX=0.5;entryY=0;entryDx=0;entryDy=0;endArrow=none;endFill=0;" parent="1" source="GkJaOWYSj2WOqf68plXg-58" target="GkJaOWYSj2WOqf68plXg-62" edge="1">
                    <mxGeometry relative="1" as="geometry"/>
                </mxCell>
                <mxCell id="GkJaOWYSj2WOqf68plXg-58" value="Students" style="rounded=0;whiteSpace=wrap;html=1;" parent="1" vertex="1">
                    <mxGeometry x="1205" y="547.66" width="120" height="60" as="geometry"/>
                </mxCell>
                <mxCell id="GkJaOWYSj2WOqf68plXg-59" value="first_name" style="ellipse;whiteSpace=wrap;html=1;" parent="1" vertex="1">
                    <mxGeometry x="1120" y="442.24999999999994" width="90" height="60" as="geometry"/>
                </mxCell>
                <mxCell id="GkJaOWYSj2WOqf68plXg-60" value="last_name&amp;nbsp;" style="ellipse;whiteSpace=wrap;html=1;" parent="1" vertex="1">
                    <mxGeometry x="1310" y="467.04999999999995" width="120" height="60" as="geometry"/>
                </mxCell>
                <mxCell id="GkJaOWYSj2WOqf68plXg-61" value="date_of_birth&amp;nbsp;" style="ellipse;whiteSpace=wrap;html=1;" parent="1" vertex="1">
                    <mxGeometry x="1135" y="627.66" width="90" height="60" as="geometry"/>
                </mxCell>
                <mxCell id="GkJaOWYSj2WOqf68plXg-62" value="language&amp;nbsp;" style="ellipse;whiteSpace=wrap;html=1;" parent="1" vertex="1">
                    <mxGeometry x="1245" y="647.66" width="90" height="60" as="geometry"/>
                </mxCell>
                <mxCell id="GkJaOWYSj2WOqf68plXg-63" value="email&amp;nbsp;" style="ellipse;whiteSpace=wrap;html=1;" parent="1" vertex="1">
                    <mxGeometry x="1405" y="537.66" width="90" height="60" as="geometry"/>
                </mxCell>
                <mxCell id="GkJaOWYSj2WOqf68plXg-64" value="student_id" style="ellipse;whiteSpace=wrap;html=1;" parent="1" vertex="1">
                    <mxGeometry x="950" y="447.44999999999993" width="90" height="60" as="geometry"/>
                </mxCell>
                <mxCell id="GkJaOWYSj2WOqf68plXg-65" value="password&amp;nbsp;" style="ellipse;whiteSpace=wrap;html=1;" parent="1" vertex="1">
                    <mxGeometry x="1375" y="597.66" width="90" height="60" as="geometry"/>
                </mxCell>
                <mxCell id="GkJaOWYSj2WOqf68plXg-69" style="edgeStyle=orthogonalEdgeStyle;rounded=0;orthogonalLoop=1;jettySize=auto;html=1;exitX=1;exitY=0.5;exitDx=0;exitDy=0;entryX=0.5;entryY=1;entryDx=0;entryDy=0;endArrow=ERmany;endFill=0;" parent="1" source="GkJaOWYSj2WOqf68plXg-67" target="GkJaOWYSj2WOqf68plXg-30" edge="1">
                    <mxGeometry relative="1" as="geometry"/>
                </mxCell>
                <mxCell id="GkJaOWYSj2WOqf68plXg-70" style="edgeStyle=orthogonalEdgeStyle;rounded=0;orthogonalLoop=1;jettySize=auto;html=1;exitX=0;exitY=0.5;exitDx=0;exitDy=0;entryX=0.5;entryY=0;entryDx=0;entryDy=0;endArrow=none;endFill=0;" parent="1" source="GkJaOWYSj2WOqf68plXg-67" target="GkJaOWYSj2WOqf68plXg-58" edge="1">
                    <mxGeometry relative="1" as="geometry"/>
                </mxCell>
                <mxCell id="GkJaOWYSj2WOqf68plXg-67" value="1:N" style="rhombus;whiteSpace=wrap;html=1;" parent="1" vertex="1">
                    <mxGeometry x="1240" y="412.26" width="80" height="49.59" as="geometry"/>
                </mxCell>
                <mxCell id="GkJaOWYSj2WOqf68plXg-71" style="edgeStyle=orthogonalEdgeStyle;rounded=0;orthogonalLoop=1;jettySize=auto;html=1;exitX=0.75;exitY=1;exitDx=0;exitDy=0;endArrow=none;endFill=0;" parent="1" source="GkJaOWYSj2WOqf68plXg-78" target="GkJaOWYSj2WOqf68plXg-85" edge="1">
                    <mxGeometry relative="1" as="geometry"/>
                </mxCell>
                <mxCell id="GkJaOWYSj2WOqf68plXg-72" style="edgeStyle=orthogonalEdgeStyle;rounded=0;orthogonalLoop=1;jettySize=auto;html=1;exitX=1;exitY=0.25;exitDx=0;exitDy=0;entryX=0;entryY=1;entryDx=0;entryDy=0;endArrow=none;endFill=0;" parent="1" source="GkJaOWYSj2WOqf68plXg-78" target="GkJaOWYSj2WOqf68plXg-83" edge="1">
                    <mxGeometry relative="1" as="geometry"/>
                </mxCell>
                <mxCell id="GkJaOWYSj2WOqf68plXg-73" style="edgeStyle=orthogonalEdgeStyle;rounded=0;orthogonalLoop=1;jettySize=auto;html=1;exitX=0.75;exitY=0;exitDx=0;exitDy=0;entryX=0.5;entryY=1;entryDx=0;entryDy=0;endArrow=none;endFill=0;" parent="1" source="GkJaOWYSj2WOqf68plXg-78" target="GkJaOWYSj2WOqf68plXg-80" edge="1">
                    <mxGeometry relative="1" as="geometry"/>
                </mxCell>
                <mxCell id="GkJaOWYSj2WOqf68plXg-74" style="edgeStyle=orthogonalEdgeStyle;rounded=0;orthogonalLoop=1;jettySize=auto;html=1;exitX=0.25;exitY=0;exitDx=0;exitDy=0;entryX=0.705;entryY=1.05;entryDx=0;entryDy=0;entryPerimeter=0;endArrow=none;endFill=0;" parent="1" source="GkJaOWYSj2WOqf68plXg-78" target="GkJaOWYSj2WOqf68plXg-79" edge="1">
                    <mxGeometry relative="1" as="geometry"/>
                </mxCell>
                <mxCell id="GkJaOWYSj2WOqf68plXg-75" style="edgeStyle=orthogonalEdgeStyle;rounded=0;orthogonalLoop=1;jettySize=auto;html=1;exitX=0;exitY=0.5;exitDx=0;exitDy=0;entryX=1;entryY=0.5;entryDx=0;entryDy=0;endArrow=none;endFill=0;" parent="1" source="GkJaOWYSj2WOqf68plXg-78" target="GkJaOWYSj2WOqf68plXg-84" edge="1">
                    <mxGeometry relative="1" as="geometry"/>
                </mxCell>
                <mxCell id="GkJaOWYSj2WOqf68plXg-76" style="edgeStyle=orthogonalEdgeStyle;rounded=0;orthogonalLoop=1;jettySize=auto;html=1;exitX=0;exitY=1;exitDx=0;exitDy=0;entryX=0.986;entryY=0.305;entryDx=0;entryDy=0;entryPerimeter=0;endArrow=none;endFill=0;" parent="1" source="GkJaOWYSj2WOqf68plXg-78" target="GkJaOWYSj2WOqf68plXg-81" edge="1">
                    <mxGeometry relative="1" as="geometry"/>
                </mxCell>
                <mxCell id="GkJaOWYSj2WOqf68plXg-77" style="edgeStyle=orthogonalEdgeStyle;rounded=0;orthogonalLoop=1;jettySize=auto;html=1;exitX=0.25;exitY=1;exitDx=0;exitDy=0;entryX=0.5;entryY=0;entryDx=0;entryDy=0;endArrow=none;endFill=0;" parent="1" source="GkJaOWYSj2WOqf68plXg-78" target="GkJaOWYSj2WOqf68plXg-82" edge="1">
                    <mxGeometry relative="1" as="geometry"/>
                </mxCell>
                <mxCell id="GkJaOWYSj2WOqf68plXg-78" value="Instructors" style="rounded=0;whiteSpace=wrap;html=1;" parent="1" vertex="1">
                    <mxGeometry x="270" y="635.41" width="120" height="60" as="geometry"/>
                </mxCell>
                <mxCell id="GkJaOWYSj2WOqf68plXg-79" value="first_name" style="ellipse;whiteSpace=wrap;html=1;" parent="1" vertex="1">
                    <mxGeometry x="190" y="555.41" width="90" height="60" as="geometry"/>
                </mxCell>
                <mxCell id="GkJaOWYSj2WOqf68plXg-80" value="last_name&amp;nbsp;" style="ellipse;whiteSpace=wrap;html=1;" parent="1" vertex="1">
                    <mxGeometry x="290" y="494.79999999999995" width="120" height="60" as="geometry"/>
                </mxCell>
                <mxCell id="GkJaOWYSj2WOqf68plXg-81" value="biography&amp;nbsp;" style="ellipse;whiteSpace=wrap;html=1;" parent="1" vertex="1">
                    <mxGeometry x="200" y="715.41" width="90" height="60" as="geometry"/>
                </mxCell>
                <mxCell id="GkJaOWYSj2WOqf68plXg-82" value="phone_num&amp;nbsp;" style="ellipse;whiteSpace=wrap;html=1;" parent="1" vertex="1">
                    <mxGeometry x="310" y="735.41" width="90" height="60" as="geometry"/>
                </mxCell>
                <mxCell id="GkJaOWYSj2WOqf68plXg-83" value="email&amp;nbsp;" style="ellipse;whiteSpace=wrap;html=1;" parent="1" vertex="1">
                    <mxGeometry x="420" y="585" width="90" height="60" as="geometry"/>
                </mxCell>
                <mxCell id="GkJaOWYSj2WOqf68plXg-84" value="instructor_id" style="ellipse;whiteSpace=wrap;html=1;" parent="1" vertex="1">
                    <mxGeometry x="120" y="625.41" width="90" height="60" as="geometry"/>
                </mxCell>
                <mxCell id="GkJaOWYSj2WOqf68plXg-85" value="password&amp;nbsp;" style="ellipse;whiteSpace=wrap;html=1;" parent="1" vertex="1">
                    <mxGeometry x="440" y="685.41" width="90" height="60" as="geometry"/>
                </mxCell>
                <mxCell id="GkJaOWYSj2WOqf68plXg-87" style="edgeStyle=orthogonalEdgeStyle;rounded=0;orthogonalLoop=1;jettySize=auto;html=1;exitX=0.5;exitY=1;exitDx=0;exitDy=0;entryX=0.5;entryY=0;entryDx=0;entryDy=0;endArrow=ERmany;endFill=0;" parent="1" source="GkJaOWYSj2WOqf68plXg-86" target="GkJaOWYSj2WOqf68plXg-78" edge="1">
                    <mxGeometry relative="1" as="geometry">
                        <mxPoint x="320" y="530.0000000000001" as="sourcePoint"/>
                    </mxGeometry>
                </mxCell>
                <mxCell id="GkJaOWYSj2WOqf68plXg-88" style="edgeStyle=orthogonalEdgeStyle;rounded=0;orthogonalLoop=1;jettySize=auto;html=1;exitX=0.5;exitY=0;exitDx=0;exitDy=0;entryX=0.399;entryY=0.991;entryDx=0;entryDy=0;entryPerimeter=0;endArrow=ERmany;endFill=0;" parent="1" source="GkJaOWYSj2WOqf68plXg-86" target="GkJaOWYSj2WOqf68plXg-1" edge="1">
                    <mxGeometry relative="1" as="geometry"/>
                </mxCell>
                <mxCell id="GkJaOWYSj2WOqf68plXg-86" value="M:N" style="rhombus;whiteSpace=wrap;html=1;" parent="1" vertex="1">
                    <mxGeometry x="420" y="452.65999999999997" width="80" height="49.59" as="geometry"/>
                </mxCell>
                <mxCell id="GkJaOWYSj2WOqf68plXg-92" style="edgeStyle=orthogonalEdgeStyle;rounded=0;orthogonalLoop=1;jettySize=auto;html=1;exitX=0.25;exitY=0;exitDx=0;exitDy=0;entryX=0.705;entryY=1.05;entryDx=0;entryDy=0;entryPerimeter=0;endArrow=none;endFill=0;" parent="1" source="GkJaOWYSj2WOqf68plXg-96" target="GkJaOWYSj2WOqf68plXg-97" edge="1">
                    <mxGeometry relative="1" as="geometry"/>
                </mxCell>
                <mxCell id="GkJaOWYSj2WOqf68plXg-93" style="edgeStyle=orthogonalEdgeStyle;rounded=0;orthogonalLoop=1;jettySize=auto;html=1;exitX=0;exitY=0.5;exitDx=0;exitDy=0;entryX=1;entryY=0.5;entryDx=0;entryDy=0;endArrow=none;endFill=0;" parent="1" source="GkJaOWYSj2WOqf68plXg-96" target="GkJaOWYSj2WOqf68plXg-102" edge="1">
                    <mxGeometry relative="1" as="geometry"/>
                </mxCell>
                <mxCell id="GkJaOWYSj2WOqf68plXg-94" style="edgeStyle=orthogonalEdgeStyle;rounded=0;orthogonalLoop=1;jettySize=auto;html=1;exitX=0;exitY=1;exitDx=0;exitDy=0;entryX=0.986;entryY=0.305;entryDx=0;entryDy=0;entryPerimeter=0;endArrow=none;endFill=0;" parent="1" source="GkJaOWYSj2WOqf68plXg-96" target="GkJaOWYSj2WOqf68plXg-99" edge="1">
                    <mxGeometry relative="1" as="geometry"/>
                </mxCell>
                <mxCell id="GkJaOWYSj2WOqf68plXg-95" style="edgeStyle=orthogonalEdgeStyle;rounded=0;orthogonalLoop=1;jettySize=auto;html=1;exitX=0.25;exitY=1;exitDx=0;exitDy=0;entryX=0.5;entryY=0;entryDx=0;entryDy=0;endArrow=none;endFill=0;" parent="1" source="GkJaOWYSj2WOqf68plXg-96" target="GkJaOWYSj2WOqf68plXg-100" edge="1">
                    <mxGeometry relative="1" as="geometry"/>
                </mxCell>
                <mxCell id="GkJaOWYSj2WOqf68plXg-96" value="Certificates" style="rounded=0;whiteSpace=wrap;html=1;" parent="1" vertex="1">
                    <mxGeometry x="1391" y="250.3" width="120" height="60" as="geometry"/>
                </mxCell>
                <mxCell id="GkJaOWYSj2WOqf68plXg-97" value="certificate_id" style="ellipse;whiteSpace=wrap;html=1;" parent="1" vertex="1">
                    <mxGeometry x="1470" y="120" width="90" height="60" as="geometry"/>
                </mxCell>
                <mxCell id="GkJaOWYSj2WOqf68plXg-99" value="expiration_date" style="ellipse;whiteSpace=wrap;html=1;" parent="1" vertex="1">
                    <mxGeometry x="1560" y="229.99999999999994" width="90" height="60" as="geometry"/>
                </mxCell>
                <mxCell id="GkJaOWYSj2WOqf68plXg-100" value="certificate_URL" style="ellipse;whiteSpace=wrap;html=1;" parent="1" vertex="1">
                    <mxGeometry x="1380" y="355.5" width="90" height="60" as="geometry"/>
                </mxCell>
                <mxCell id="GkJaOWYSj2WOqf68plXg-102" value="issue_date" style="ellipse;whiteSpace=wrap;html=1;" parent="1" vertex="1">
                    <mxGeometry x="1310" y="160" width="90" height="60" as="geometry"/>
                </mxCell>
                <mxCell id="GkJaOWYSj2WOqf68plXg-106" style="edgeStyle=orthogonalEdgeStyle;rounded=0;orthogonalLoop=1;jettySize=auto;html=1;exitX=1;exitY=0.5;exitDx=0;exitDy=0;entryX=0;entryY=0.75;entryDx=0;entryDy=0;endArrow=none;endFill=0;" parent="1" source="GkJaOWYSj2WOqf68plXg-104" target="GkJaOWYSj2WOqf68plXg-96" edge="1">
                    <mxGeometry relative="1" as="geometry"/>
                </mxCell>
                <mxCell id="GkJaOWYSj2WOqf68plXg-104" value="1:1" style="rhombus;whiteSpace=wrap;html=1;" parent="1" vertex="1">
                    <mxGeometry x="1230" y="255.49999999999997" width="80" height="49.59" as="geometry"/>
                </mxCell>
                <mxCell id="GkJaOWYSj2WOqf68plXg-107" style="edgeStyle=orthogonalEdgeStyle;rounded=0;orthogonalLoop=1;jettySize=auto;html=1;exitX=0.75;exitY=1;exitDx=0;exitDy=0;endArrow=none;endFill=0;" parent="1" source="GkJaOWYSj2WOqf68plXg-114" target="GkJaOWYSj2WOqf68plXg-121" edge="1">
                    <mxGeometry relative="1" as="geometry"/>
                </mxCell>
                <mxCell id="GkJaOWYSj2WOqf68plXg-108" style="edgeStyle=orthogonalEdgeStyle;rounded=0;orthogonalLoop=1;jettySize=auto;html=1;exitX=1;exitY=0.25;exitDx=0;exitDy=0;entryX=0;entryY=1;entryDx=0;entryDy=0;endArrow=none;endFill=0;" parent="1" source="GkJaOWYSj2WOqf68plXg-114" target="GkJaOWYSj2WOqf68plXg-119" edge="1">
                    <mxGeometry relative="1" as="geometry"/>
                </mxCell>
                <mxCell id="GkJaOWYSj2WOqf68plXg-109" style="edgeStyle=orthogonalEdgeStyle;rounded=0;orthogonalLoop=1;jettySize=auto;html=1;exitX=0.75;exitY=0;exitDx=0;exitDy=0;entryX=0.5;entryY=1;entryDx=0;entryDy=0;endArrow=none;endFill=0;" parent="1" source="GkJaOWYSj2WOqf68plXg-114" target="GkJaOWYSj2WOqf68plXg-116" edge="1">
                    <mxGeometry relative="1" as="geometry"/>
                </mxCell>
                <mxCell id="GkJaOWYSj2WOqf68plXg-110" style="edgeStyle=orthogonalEdgeStyle;rounded=0;orthogonalLoop=1;jettySize=auto;html=1;exitX=0.25;exitY=0;exitDx=0;exitDy=0;entryX=0.705;entryY=1.05;entryDx=0;entryDy=0;entryPerimeter=0;endArrow=none;endFill=0;" parent="1" source="GkJaOWYSj2WOqf68plXg-114" target="GkJaOWYSj2WOqf68plXg-115" edge="1">
                    <mxGeometry relative="1" as="geometry"/>
                </mxCell>
                <mxCell id="GkJaOWYSj2WOqf68plXg-111" style="edgeStyle=orthogonalEdgeStyle;rounded=0;orthogonalLoop=1;jettySize=auto;html=1;exitX=0;exitY=0.5;exitDx=0;exitDy=0;entryX=1;entryY=0.5;entryDx=0;entryDy=0;endArrow=none;endFill=0;" parent="1" source="GkJaOWYSj2WOqf68plXg-114" target="GkJaOWYSj2WOqf68plXg-120" edge="1">
                    <mxGeometry relative="1" as="geometry"/>
                </mxCell>
                <mxCell id="GkJaOWYSj2WOqf68plXg-113" style="edgeStyle=orthogonalEdgeStyle;rounded=0;orthogonalLoop=1;jettySize=auto;html=1;exitX=0.25;exitY=1;exitDx=0;exitDy=0;entryX=0.5;entryY=0;entryDx=0;entryDy=0;endArrow=none;endFill=0;" parent="1" source="GkJaOWYSj2WOqf68plXg-114" target="GkJaOWYSj2WOqf68plXg-118" edge="1">
                    <mxGeometry relative="1" as="geometry"/>
                </mxCell>
                <mxCell id="GkJaOWYSj2WOqf68plXg-114" value="Exams" style="rounded=0;whiteSpace=wrap;html=1;" parent="1" vertex="1">
                    <mxGeometry x="-95" y="415.5" width="120" height="60" as="geometry"/>
                </mxCell>
                <mxCell id="GkJaOWYSj2WOqf68plXg-115" value="exam_title&amp;nbsp;" style="ellipse;whiteSpace=wrap;html=1;" parent="1" vertex="1">
                    <mxGeometry x="-190" y="320" width="90" height="60" as="geometry"/>
                </mxCell>
                <mxCell id="GkJaOWYSj2WOqf68plXg-116" value="exam_description&amp;nbsp;" style="ellipse;whiteSpace=wrap;html=1;" parent="1" vertex="1">
                    <mxGeometry x="60" y="397.25000000000006" width="120" height="60" as="geometry"/>
                </mxCell>
                <mxCell id="GkJaOWYSj2WOqf68plXg-118" value="attempts_allowed" style="ellipse;whiteSpace=wrap;html=1;" parent="1" vertex="1">
                    <mxGeometry x="-200" y="502.25" width="140" height="60" as="geometry"/>
                </mxCell>
                <mxCell id="GkJaOWYSj2WOqf68plXg-119" value="exam_duration" style="ellipse;whiteSpace=wrap;html=1;" parent="1" vertex="1">
                    <mxGeometry x="20" y="497.25" width="90" height="60" as="geometry"/>
                </mxCell>
                <mxCell id="GkJaOWYSj2WOqf68plXg-120" value="exam_id" style="ellipse;whiteSpace=wrap;html=1;" parent="1" vertex="1">
                    <mxGeometry x="-200" y="407.05" width="90" height="60" as="geometry"/>
                </mxCell>
                <mxCell id="GkJaOWYSj2WOqf68plXg-121" value="passing_score" style="ellipse;whiteSpace=wrap;html=1;" parent="1" vertex="1">
                    <mxGeometry x="-70" y="552.25" width="90" height="60" as="geometry"/>
                </mxCell>
                <mxCell id="GkJaOWYSj2WOqf68plXg-123" style="edgeStyle=orthogonalEdgeStyle;rounded=0;orthogonalLoop=1;jettySize=auto;html=1;exitX=0;exitY=0.5;exitDx=0;exitDy=0;entryX=0.5;entryY=0;entryDx=0;entryDy=0;endArrow=none;endFill=0;" parent="1" source="GkJaOWYSj2WOqf68plXg-122" target="GkJaOWYSj2WOqf68plXg-114" edge="1">
                    <mxGeometry relative="1" as="geometry"/>
                </mxCell>
                <mxCell id="GkJaOWYSj2WOqf68plXg-125" style="edgeStyle=orthogonalEdgeStyle;rounded=0;orthogonalLoop=1;jettySize=auto;html=1;exitX=1;exitY=0.5;exitDx=0;exitDy=0;entryX=0;entryY=0.75;entryDx=0;entryDy=0;endArrow=none;endFill=0;" parent="1" source="GkJaOWYSj2WOqf68plXg-122" target="GkJaOWYSj2WOqf68plXg-1" edge="1">
                    <mxGeometry relative="1" as="geometry"/>
                </mxCell>
                <mxCell id="GkJaOWYSj2WOqf68plXg-122" value="1:1" style="rhombus;whiteSpace=wrap;html=1;" parent="1" vertex="1">
                    <mxGeometry x="50" y="327.75" width="80" height="49.59" as="geometry"/>
                </mxCell>
                <mxCell id="GkJaOWYSj2WOqf68plXg-124" value="" style="edgeStyle=orthogonalEdgeStyle;rounded=0;orthogonalLoop=1;jettySize=auto;html=1;exitX=0;exitY=0.5;exitDx=0;exitDy=0;endArrow=none;endFill=0;" parent="1" source="GkJaOWYSj2WOqf68plXg-1" target="GkJaOWYSj2WOqf68plXg-9" edge="1">
                    <mxGeometry relative="1" as="geometry">
                        <mxPoint x="420" y="310" as="sourcePoint"/>
                        <mxPoint x="330" y="196" as="targetPoint"/>
                    </mxGeometry>
                </mxCell>
                <mxCell id="GkJaOWYSj2WOqf68plXg-9" value="date_created&amp;nbsp;" style="ellipse;whiteSpace=wrap;html=1;" parent="1" vertex="1">
                    <mxGeometry x="323" y="230" width="90" height="60" as="geometry"/>
                </mxCell>
                <mxCell id="GkJaOWYSj2WOqf68plXg-126" style="edgeStyle=orthogonalEdgeStyle;rounded=0;orthogonalLoop=1;jettySize=auto;html=1;exitX=0.75;exitY=1;exitDx=0;exitDy=0;endArrow=none;endFill=0;" parent="1" source="GkJaOWYSj2WOqf68plXg-133" target="GkJaOWYSj2WOqf68plXg-140" edge="1">
                    <mxGeometry relative="1" as="geometry"/>
                </mxCell>
                <mxCell id="GkJaOWYSj2WOqf68plXg-127" style="edgeStyle=orthogonalEdgeStyle;rounded=0;orthogonalLoop=1;jettySize=auto;html=1;exitX=1;exitY=0.25;exitDx=0;exitDy=0;entryX=0;entryY=1;entryDx=0;entryDy=0;endArrow=none;endFill=0;" parent="1" source="GkJaOWYSj2WOqf68plXg-133" target="GkJaOWYSj2WOqf68plXg-138" edge="1">
                    <mxGeometry relative="1" as="geometry"/>
                </mxCell>
                <mxCell id="GkJaOWYSj2WOqf68plXg-128" style="edgeStyle=orthogonalEdgeStyle;rounded=0;orthogonalLoop=1;jettySize=auto;html=1;exitX=0.75;exitY=0;exitDx=0;exitDy=0;entryX=0.5;entryY=1;entryDx=0;entryDy=0;endArrow=none;endFill=0;" parent="1" source="GkJaOWYSj2WOqf68plXg-133" target="GkJaOWYSj2WOqf68plXg-135" edge="1">
                    <mxGeometry relative="1" as="geometry"/>
                </mxCell>
                <mxCell id="GkJaOWYSj2WOqf68plXg-129" style="edgeStyle=orthogonalEdgeStyle;rounded=0;orthogonalLoop=1;jettySize=auto;html=1;exitX=0.25;exitY=0;exitDx=0;exitDy=0;entryX=0.705;entryY=1.05;entryDx=0;entryDy=0;entryPerimeter=0;endArrow=none;endFill=0;" parent="1" source="GkJaOWYSj2WOqf68plXg-133" target="GkJaOWYSj2WOqf68plXg-134" edge="1">
                    <mxGeometry relative="1" as="geometry"/>
                </mxCell>
                <mxCell id="GkJaOWYSj2WOqf68plXg-131" style="edgeStyle=orthogonalEdgeStyle;rounded=0;orthogonalLoop=1;jettySize=auto;html=1;exitX=0;exitY=1;exitDx=0;exitDy=0;entryX=0.986;entryY=0.305;entryDx=0;entryDy=0;entryPerimeter=0;endArrow=none;endFill=0;" parent="1" source="GkJaOWYSj2WOqf68plXg-133" target="GkJaOWYSj2WOqf68plXg-136" edge="1">
                    <mxGeometry relative="1" as="geometry"/>
                </mxCell>
                <mxCell id="GkJaOWYSj2WOqf68plXg-132" style="edgeStyle=orthogonalEdgeStyle;rounded=0;orthogonalLoop=1;jettySize=auto;html=1;exitX=0.25;exitY=1;exitDx=0;exitDy=0;entryX=0.5;entryY=0;entryDx=0;entryDy=0;endArrow=none;endFill=0;" parent="1" source="GkJaOWYSj2WOqf68plXg-133" target="GkJaOWYSj2WOqf68plXg-137" edge="1">
                    <mxGeometry relative="1" as="geometry"/>
                </mxCell>
                <mxCell id="GkJaOWYSj2WOqf68plXg-133" value="Lessons" style="rounded=0;whiteSpace=wrap;html=1;" parent="1" vertex="1">
                    <mxGeometry x="15" y="15" width="120" height="60" as="geometry"/>
                </mxCell>
                <mxCell id="GkJaOWYSj2WOqf68plXg-134" value="lesson_id" style="ellipse;whiteSpace=wrap;html=1;" parent="1" vertex="1">
                    <mxGeometry x="-65" y="-65" width="90" height="60" as="geometry"/>
                </mxCell>
                <mxCell id="GkJaOWYSj2WOqf68plXg-135" value="course_id" style="ellipse;whiteSpace=wrap;html=1;" parent="1" vertex="1">
                    <mxGeometry x="40" y="-110" width="120" height="60" as="geometry"/>
                </mxCell>
                <mxCell id="GkJaOWYSj2WOqf68plXg-136" value="order" style="ellipse;whiteSpace=wrap;html=1;" parent="1" vertex="1">
                    <mxGeometry x="-120" y="30" width="90" height="60" as="geometry"/>
                </mxCell>
                <mxCell id="GkJaOWYSj2WOqf68plXg-137" value="video_URL" style="ellipse;whiteSpace=wrap;html=1;" parent="1" vertex="1">
                    <mxGeometry x="-30" y="120" width="90" height="60" as="geometry"/>
                </mxCell>
                <mxCell id="GkJaOWYSj2WOqf68plXg-138" value="lesson_title" style="ellipse;whiteSpace=wrap;html=1;" parent="1" vertex="1">
                    <mxGeometry x="140" y="-80" width="90" height="60" as="geometry"/>
                </mxCell>
                <mxCell id="GkJaOWYSj2WOqf68plXg-140" value="lesson_description" style="ellipse;whiteSpace=wrap;html=1;" parent="1" vertex="1">
                    <mxGeometry x="195" y="-20" width="135" height="60" as="geometry"/>
                </mxCell>
                <mxCell id="GkJaOWYSj2WOqf68plXg-143" style="edgeStyle=orthogonalEdgeStyle;rounded=0;orthogonalLoop=1;jettySize=auto;html=1;exitX=0;exitY=0.5;exitDx=0;exitDy=0;endArrow=ERmany;endFill=0;" parent="1" source="GkJaOWYSj2WOqf68plXg-142" target="GkJaOWYSj2WOqf68plXg-133" edge="1">
                    <mxGeometry relative="1" as="geometry"/>
                </mxCell>
                <mxCell id="GkJaOWYSj2WOqf68plXg-144" style="edgeStyle=orthogonalEdgeStyle;rounded=0;orthogonalLoop=1;jettySize=auto;html=1;exitX=1;exitY=0.5;exitDx=0;exitDy=0;entryX=0;entryY=0.5;entryDx=0;entryDy=0;endArrow=none;endFill=0;" parent="1" source="GkJaOWYSj2WOqf68plXg-142" target="GkJaOWYSj2WOqf68plXg-1" edge="1">
                    <mxGeometry relative="1" as="geometry"/>
                </mxCell>
                <mxCell id="GkJaOWYSj2WOqf68plXg-142" value="M:1" style="rhombus;whiteSpace=wrap;html=1;" parent="1" vertex="1">
                    <mxGeometry x="160" y="270.40999999999997" width="80" height="49.59" as="geometry"/>
                </mxCell>
                <mxCell id="GkJaOWYSj2WOqf68plXg-145" style="edgeStyle=orthogonalEdgeStyle;rounded=0;orthogonalLoop=1;jettySize=auto;html=1;exitX=0.75;exitY=1;exitDx=0;exitDy=0;endArrow=none;endFill=0;" parent="1" source="GkJaOWYSj2WOqf68plXg-150" target="GkJaOWYSj2WOqf68plXg-155" edge="1">
                    <mxGeometry relative="1" as="geometry"/>
                </mxCell>
                <mxCell id="GkJaOWYSj2WOqf68plXg-146" style="edgeStyle=orthogonalEdgeStyle;rounded=0;orthogonalLoop=1;jettySize=auto;html=1;exitX=1;exitY=0.25;exitDx=0;exitDy=0;entryX=0;entryY=1;entryDx=0;entryDy=0;endArrow=none;endFill=0;" parent="1" source="GkJaOWYSj2WOqf68plXg-150" target="GkJaOWYSj2WOqf68plXg-154" edge="1">
                    <mxGeometry relative="1" as="geometry"/>
                </mxCell>
                <mxCell id="GkJaOWYSj2WOqf68plXg-147" style="edgeStyle=orthogonalEdgeStyle;rounded=0;orthogonalLoop=1;jettySize=auto;html=1;exitX=0.75;exitY=0;exitDx=0;exitDy=0;entryX=0.5;entryY=1;entryDx=0;entryDy=0;endArrow=none;endFill=0;" parent="1" source="GkJaOWYSj2WOqf68plXg-150" target="GkJaOWYSj2WOqf68plXg-152" edge="1">
                    <mxGeometry relative="1" as="geometry"/>
                </mxCell>
                <mxCell id="GkJaOWYSj2WOqf68plXg-148" style="edgeStyle=orthogonalEdgeStyle;rounded=0;orthogonalLoop=1;jettySize=auto;html=1;exitX=0.25;exitY=0;exitDx=0;exitDy=0;entryX=0.705;entryY=1.05;entryDx=0;entryDy=0;entryPerimeter=0;endArrow=none;endFill=0;" parent="1" source="GkJaOWYSj2WOqf68plXg-150" target="GkJaOWYSj2WOqf68plXg-151" edge="1">
                    <mxGeometry relative="1" as="geometry"/>
                </mxCell>
                <mxCell id="GkJaOWYSj2WOqf68plXg-149" style="edgeStyle=orthogonalEdgeStyle;rounded=0;orthogonalLoop=1;jettySize=auto;html=1;exitX=0;exitY=1;exitDx=0;exitDy=0;entryX=0.986;entryY=0.305;entryDx=0;entryDy=0;entryPerimeter=0;endArrow=none;endFill=0;" parent="1" source="GkJaOWYSj2WOqf68plXg-150" target="GkJaOWYSj2WOqf68plXg-153" edge="1">
                    <mxGeometry relative="1" as="geometry"/>
                </mxCell>
                <mxCell id="GkJaOWYSj2WOqf68plXg-150" value="Categories" style="rounded=0;whiteSpace=wrap;html=1;" parent="1" vertex="1">
                    <mxGeometry x="650" y="-65" width="120" height="60" as="geometry"/>
                </mxCell>
                <mxCell id="GkJaOWYSj2WOqf68plXg-151" value="lesson_id" style="ellipse;whiteSpace=wrap;html=1;" parent="1" vertex="1">
                    <mxGeometry x="500" y="-125" width="90" height="60" as="geometry"/>
                </mxCell>
                <mxCell id="GkJaOWYSj2WOqf68plXg-152" value="category_id" style="ellipse;whiteSpace=wrap;html=1;" parent="1" vertex="1">
                    <mxGeometry x="620" y="-185" width="120" height="60" as="geometry"/>
                </mxCell>
                <mxCell id="GkJaOWYSj2WOqf68plXg-153" value="parent_category_id&amp;nbsp;" style="ellipse;whiteSpace=wrap;html=1;" parent="1" vertex="1">
                    <mxGeometry x="455" y="-60" width="120" height="60" as="geometry"/>
                </mxCell>
                <mxCell id="GkJaOWYSj2WOqf68plXg-154" value="category_name&amp;nbsp;" style="ellipse;whiteSpace=wrap;html=1;" parent="1" vertex="1">
                    <mxGeometry x="780" y="-160" width="90" height="60" as="geometry"/>
                </mxCell>
                <mxCell id="GkJaOWYSj2WOqf68plXg-155" value="category_description" style="ellipse;whiteSpace=wrap;html=1;" parent="1" vertex="1">
                    <mxGeometry x="830" y="-65" width="135" height="60" as="geometry"/>
                </mxCell>
                <mxCell id="GkJaOWYSj2WOqf68plXg-159" style="edgeStyle=orthogonalEdgeStyle;rounded=0;orthogonalLoop=1;jettySize=auto;html=1;exitX=1;exitY=0.5;exitDx=0;exitDy=0;endArrow=none;endFill=0;" parent="1" source="GkJaOWYSj2WOqf68plXg-156" target="GkJaOWYSj2WOqf68plXg-150" edge="1">
                    <mxGeometry relative="1" as="geometry"/>
                </mxCell>
                <mxCell id="GkJaOWYSj2WOqf68plXg-160" style="edgeStyle=orthogonalEdgeStyle;rounded=0;orthogonalLoop=1;jettySize=auto;html=1;exitX=0;exitY=0.5;exitDx=0;exitDy=0;entryX=0.66;entryY=0.995;entryDx=0;entryDy=0;entryPerimeter=0;endArrow=ERmany;endFill=0;" parent="1" source="GkJaOWYSj2WOqf68plXg-156" target="GkJaOWYSj2WOqf68plXg-153" edge="1">
                    <mxGeometry relative="1" as="geometry"/>
                </mxCell>
                <mxCell id="GkJaOWYSj2WOqf68plXg-156" value="N:1" style="rhombus;whiteSpace=wrap;html=1;" parent="1" vertex="1">
                    <mxGeometry x="555" y="35.20999999999998" width="80" height="49.59" as="geometry"/>
                </mxCell>
                <mxCell id="GkJaOWYSj2WOqf68plXg-161" value="" style="edgeStyle=orthogonalEdgeStyle;rounded=0;orthogonalLoop=1;jettySize=auto;html=1;exitX=0.5;exitY=0;exitDx=0;exitDy=0;endArrow=none;endFill=0;" parent="1" source="GkJaOWYSj2WOqf68plXg-1" target="GkJaOWYSj2WOqf68plXg-15" edge="1">
                    <mxGeometry relative="1" as="geometry">
                        <mxPoint x="480" y="280" as="sourcePoint"/>
                        <mxPoint x="390" y="135" as="targetPoint"/>
                    </mxGeometry>
                </mxCell>
                <mxCell id="GkJaOWYSj2WOqf68plXg-15" value="course_id&amp;nbsp;" style="ellipse;whiteSpace=wrap;html=1;" parent="1" vertex="1">
                    <mxGeometry x="440" y="200" width="90" height="60" as="geometry"/>
                </mxCell>
                <mxCell id="GkJaOWYSj2WOqf68plXg-163" style="edgeStyle=orthogonalEdgeStyle;rounded=0;orthogonalLoop=1;jettySize=auto;html=1;exitX=0.5;exitY=0;exitDx=0;exitDy=0;entryX=0.587;entryY=1.015;entryDx=0;entryDy=0;entryPerimeter=0;endArrow=ERmany;endFill=0;" parent="1" source="GkJaOWYSj2WOqf68plXg-162" target="GkJaOWYSj2WOqf68plXg-150" edge="1">
                    <mxGeometry relative="1" as="geometry"/>
                </mxCell>
                <mxCell id="GkJaOWYSj2WOqf68plXg-164" style="edgeStyle=orthogonalEdgeStyle;rounded=0;orthogonalLoop=1;jettySize=auto;html=1;exitX=0.5;exitY=1;exitDx=0;exitDy=0;entryX=1;entryY=0.25;entryDx=0;entryDy=0;endArrow=ERmany;endFill=0;" parent="1" source="GkJaOWYSj2WOqf68plXg-162" target="GkJaOWYSj2WOqf68plXg-1" edge="1">
                    <mxGeometry relative="1" as="geometry"/>
                </mxCell>
                <mxCell id="GkJaOWYSj2WOqf68plXg-162" value="M:N" style="rhombus;whiteSpace=wrap;html=1;" parent="1" vertex="1">
                    <mxGeometry x="695" y="115.90999999999997" width="80" height="49.59" as="geometry"/>
                </mxCell>
                <mxCell id="GkJaOWYSj2WOqf68plXg-165" style="edgeStyle=orthogonalEdgeStyle;rounded=0;orthogonalLoop=1;jettySize=auto;html=1;exitX=0.75;exitY=1;exitDx=0;exitDy=0;endArrow=none;endFill=0;" parent="1" source="GkJaOWYSj2WOqf68plXg-172" target="GkJaOWYSj2WOqf68plXg-179" edge="1">
                    <mxGeometry relative="1" as="geometry"/>
                </mxCell>
                <mxCell id="GkJaOWYSj2WOqf68plXg-166" style="edgeStyle=orthogonalEdgeStyle;rounded=0;orthogonalLoop=1;jettySize=auto;html=1;exitX=1;exitY=0.25;exitDx=0;exitDy=0;entryX=0;entryY=1;entryDx=0;entryDy=0;endArrow=none;endFill=0;" parent="1" source="GkJaOWYSj2WOqf68plXg-172" target="GkJaOWYSj2WOqf68plXg-177" edge="1">
                    <mxGeometry relative="1" as="geometry"/>
                </mxCell>
                <mxCell id="GkJaOWYSj2WOqf68plXg-167" style="edgeStyle=orthogonalEdgeStyle;rounded=0;orthogonalLoop=1;jettySize=auto;html=1;exitX=0.75;exitY=0;exitDx=0;exitDy=0;entryX=0.5;entryY=1;entryDx=0;entryDy=0;endArrow=none;endFill=0;" parent="1" source="GkJaOWYSj2WOqf68plXg-172" target="GkJaOWYSj2WOqf68plXg-174" edge="1">
                    <mxGeometry relative="1" as="geometry">
                        <mxPoint x="950" y="556.33" as="targetPoint"/>
                    </mxGeometry>
                </mxCell>
                <mxCell id="GkJaOWYSj2WOqf68plXg-168" style="edgeStyle=orthogonalEdgeStyle;rounded=0;orthogonalLoop=1;jettySize=auto;html=1;exitX=0.25;exitY=0;exitDx=0;exitDy=0;entryX=0.705;entryY=1.05;entryDx=0;entryDy=0;entryPerimeter=0;endArrow=none;endFill=0;" parent="1" source="GkJaOWYSj2WOqf68plXg-172" target="GkJaOWYSj2WOqf68plXg-173" edge="1">
                    <mxGeometry relative="1" as="geometry"/>
                </mxCell>
                <mxCell id="GkJaOWYSj2WOqf68plXg-169" style="edgeStyle=orthogonalEdgeStyle;rounded=0;orthogonalLoop=1;jettySize=auto;html=1;exitX=0;exitY=0.5;exitDx=0;exitDy=0;entryX=1;entryY=0.5;entryDx=0;entryDy=0;endArrow=none;endFill=0;" parent="1" source="GkJaOWYSj2WOqf68plXg-172" target="GkJaOWYSj2WOqf68plXg-178" edge="1">
                    <mxGeometry relative="1" as="geometry">
                        <mxPoint x="700" y="621.33" as="targetPoint"/>
                    </mxGeometry>
                </mxCell>
                <mxCell id="GkJaOWYSj2WOqf68plXg-171" style="edgeStyle=orthogonalEdgeStyle;rounded=0;orthogonalLoop=1;jettySize=auto;html=1;exitX=0.25;exitY=1;exitDx=0;exitDy=0;entryX=0.5;entryY=0;entryDx=0;entryDy=0;endArrow=none;endFill=0;" parent="1" source="GkJaOWYSj2WOqf68plXg-172" target="GkJaOWYSj2WOqf68plXg-176" edge="1">
                    <mxGeometry relative="1" as="geometry"/>
                </mxCell>
                <mxCell id="GkJaOWYSj2WOqf68plXg-172" value="Reviews" style="rounded=0;whiteSpace=wrap;html=1;" parent="1" vertex="1">
                    <mxGeometry x="730" y="591.33" width="120" height="60" as="geometry"/>
                </mxCell>
                <mxCell id="GkJaOWYSj2WOqf68plXg-173" value="student_id" style="ellipse;whiteSpace=wrap;html=1;" parent="1" vertex="1">
                    <mxGeometry x="655" y="511.33" width="90" height="60" as="geometry"/>
                </mxCell>
                <mxCell id="GkJaOWYSj2WOqf68plXg-174" value="course_id" style="ellipse;whiteSpace=wrap;html=1;" parent="1" vertex="1">
                    <mxGeometry x="797" y="497.25" width="120" height="60" as="geometry"/>
                </mxCell>
                <mxCell id="GkJaOWYSj2WOqf68plXg-176" value="review_date" style="ellipse;whiteSpace=wrap;html=1;" parent="1" vertex="1">
                    <mxGeometry x="670" y="672.91" width="90" height="60" as="geometry"/>
                </mxCell>
                <mxCell id="GkJaOWYSj2WOqf68plXg-177" value="rating" style="ellipse;whiteSpace=wrap;html=1;" parent="1" vertex="1">
                    <mxGeometry x="900" y="670" width="90" height="60" as="geometry"/>
                </mxCell>
                <mxCell id="GkJaOWYSj2WOqf68plXg-178" value="review_id" style="ellipse;whiteSpace=wrap;html=1;" parent="1" vertex="1">
                    <mxGeometry x="620" y="591.33" width="90" height="60" as="geometry"/>
                </mxCell>
                <mxCell id="GkJaOWYSj2WOqf68plXg-179" value="comment" style="ellipse;whiteSpace=wrap;html=1;" parent="1" vertex="1">
                    <mxGeometry x="780" y="687.66" width="90" height="60" as="geometry"/>
                </mxCell>
                <mxCell id="GkJaOWYSj2WOqf68plXg-181" style="edgeStyle=orthogonalEdgeStyle;rounded=0;orthogonalLoop=1;jettySize=auto;html=1;exitX=0;exitY=0.5;exitDx=0;exitDy=0;entryX=0.75;entryY=1;entryDx=0;entryDy=0;endArrow=none;endFill=0;" parent="1" source="GkJaOWYSj2WOqf68plXg-180" target="GkJaOWYSj2WOqf68plXg-1" edge="1">
                    <mxGeometry relative="1" as="geometry"/>
                </mxCell>
                <mxCell id="GkJaOWYSj2WOqf68plXg-182" style="edgeStyle=orthogonalEdgeStyle;rounded=0;orthogonalLoop=1;jettySize=auto;html=1;exitX=1;exitY=0.5;exitDx=0;exitDy=0;endArrow=ERmany;endFill=0;" parent="1" source="GkJaOWYSj2WOqf68plXg-180" target="GkJaOWYSj2WOqf68plXg-172" edge="1">
                    <mxGeometry relative="1" as="geometry"/>
                </mxCell>
                <mxCell id="GkJaOWYSj2WOqf68plXg-180" value="1:N" style="rhombus;whiteSpace=wrap;html=1;" parent="1" vertex="1">
                    <mxGeometry x="575" y="467.04999999999995" width="80" height="49.59" as="geometry"/>
                </mxCell>
                <mxCell id="GkJaOWYSj2WOqf68plXg-184" style="edgeStyle=orthogonalEdgeStyle;rounded=0;orthogonalLoop=1;jettySize=auto;html=1;exitX=0;exitY=0.5;exitDx=0;exitDy=0;entryX=1;entryY=0.5;entryDx=0;entryDy=0;endArrow=ERmany;endFill=0;" parent="1" source="GkJaOWYSj2WOqf68plXg-183" target="GkJaOWYSj2WOqf68plXg-172" edge="1">
                    <mxGeometry relative="1" as="geometry"/>
                </mxCell>
                <mxCell id="GkJaOWYSj2WOqf68plXg-185" style="edgeStyle=orthogonalEdgeStyle;rounded=0;orthogonalLoop=1;jettySize=auto;html=1;exitX=1;exitY=0.5;exitDx=0;exitDy=0;endArrow=none;endFill=0;" parent="1" source="GkJaOWYSj2WOqf68plXg-183" target="GkJaOWYSj2WOqf68plXg-58" edge="1">
                    <mxGeometry relative="1" as="geometry"/>
                </mxCell>
                <mxCell id="GkJaOWYSj2WOqf68plXg-183" value="N:1" style="rhombus;whiteSpace=wrap;html=1;" parent="1" vertex="1">
                    <mxGeometry x="990" y="565.8199999999999" width="80" height="49.59" as="geometry"/>
                </mxCell>
            </root>
        </mxGraphModel>
    </diagram>
</mxfile>